<?xml version="1.0" encoding="UTF-8"?>
<!-- Generator: Adobe Illustrator 16.0.0, SVG Export Plug-In . SVG Version: 6.00 Build 0)  -->
<svg xmlns="http://www.w3.org/2000/svg" xmlns:xlink="http://www.w3.org/1999/xlink" version="1.1" id="Capa_1" x="0px" y="0px" width="230.982px" height="70px" viewBox="0 0 230.982 70" xml:space="preserve">
<g id="SvgjsG1029">
</g>
<g>
	<g id="SvgjsG1031" transform="matrix(2.7126853466033936,0,0,2.7126853466033936,229.56161065697853,0.11504692703603325)">
		<g>
			<path fill="#FFFFFF" d="M-77.267,25.677l-0.85-0.577c-6.396-4.342-8.066-13.079-3.723-19.474l3.848-5.668l0.85,0.577     c6.395,4.342,8.066,13.078,3.723,19.474L-77.267,25.677z M-77.47,2.848l-2.67,3.932c-1.795,2.643-2.453,5.829-1.853,8.968     c0.536,2.8,2.015,5.265,4.206,7.039l2.67-3.933C-71.606,13.683-72.702,6.717-77.47,2.848z"></path>
		</g>
		<g>
			<path fill="#FFFFFF" d="M-79.316,24.177c-0.893-5.681-0.192-10.207,0.371-13.844c0.494-3.19,0.884-5.708,0.12-7.935l1.943-0.666     c0.928,2.706,0.482,5.584-0.033,8.915c-0.569,3.678-1.214,7.847-0.372,13.211L-79.316,24.177z"></path>
		</g>
	</g>
	<path fill="#FFFFFF" d="M52.87,25.839l0.82-0.969c0.265-0.264,0.528-0.235,0.765-0.059c0.558,0.47,2.848,2.966,6.106,2.966   c3.876,0,5.579-2.114,5.579-4.199c0-2.995-3.406-3.788-6.489-4.904c-3.494-1.322-6.489-2.907-6.489-6.431   c0-2.937,2.144-6.167,7.399-6.167c3.611,0,6.226,2.173,6.931,2.79c0.234,0.206,0.322,0.47,0.146,0.705l-0.764,0.998   c-0.176,0.235-0.411,0.294-0.675,0.118c-0.588-0.44-2.702-2.408-5.608-2.408c-3.289,0-5.139,1.732-5.139,3.964   c0,2.584,2.613,3.494,6.049,4.728c3.142,1.175,6.93,2.76,6.93,6.636c0,3.407-3.171,6.343-7.84,6.343   c-4.287,0-6.93-2.79-7.605-3.465C52.781,26.279,52.605,26.103,52.87,25.839L52.87,25.839z M83.79,23.49   c0.821,0,1.41-0.323,1.41-1.38c0-3.759-2.907-7.077-7.106-7.077c-4.082,0-7.224,3.259-7.224,7.458c0,4.346,3.317,7.458,7.429,7.458   c2.584,0,4.61-1.233,5.932-2.936c0.147-0.206,0.118-0.353-0.059-0.528l-0.382-0.5c-0.177-0.235-0.382-0.206-0.587-0.029   c-1.116,1.116-2.731,1.997-4.698,1.997c-3.143,0-5.021-2.202-5.285-4.463H83.79L83.79,23.49z M73.19,21.698   c0.06-1.967,1.615-4.61,4.875-4.61s4.757,2.731,4.846,4.61H73.19L73.19,21.698z M100.351,23.49c0.822,0,1.41-0.323,1.41-1.38   c0-3.759-2.907-7.077-7.106-7.077c-4.082,0-7.224,3.259-7.224,7.458c0,4.346,3.318,7.458,7.429,7.458   c2.584,0,4.61-1.233,5.933-2.936c0.146-0.206,0.118-0.353-0.06-0.528l-0.382-0.5c-0.176-0.235-0.382-0.206-0.587-0.029   c-1.116,1.116-2.73,1.997-4.699,1.997c-3.142,0-5.021-2.202-5.285-4.463H100.351L100.351,23.49z M89.751,21.698   c0.059-1.967,1.615-4.61,4.875-4.61s4.757,2.731,4.845,4.61H89.751z M117.002,6.282c0.47,0,0.763,0.294,0.763,0.734v22.405   c0,0.206-0.146,0.353-0.323,0.353h-0.821c-0.5,0-1.059-0.323-1.059-0.911v-0.47c-1.204,0.911-2.848,1.585-4.64,1.585   c-4.169,0-6.871-3.376-6.871-7.576c0-4.434,3.406-7.283,6.871-7.283c2.114,0,3.553,0.676,4.64,1.41V8.426   c0-0.734-0.117-1.175-0.176-1.674c-0.029-0.265,0.059-0.47,0.264-0.47H117.002L117.002,6.282z M111.275,27.924   c1.792,0,3.171-0.675,4.288-1.439v-7.84c-1.232-0.852-2.643-1.438-4.288-1.438c-2.319,0-5.021,1.615-5.021,5.197   C106.254,25.692,108.398,27.924,111.275,27.924L111.275,27.924z M120.907,27.777l0.733-1.057c0.147-0.235,0.264-0.294,0.5-0.176   c0.088,0.088,1.909,1.321,4.14,1.321c2.468,0,3.23-1.057,3.23-2.026c0-1.41-1.645-1.938-3.641-2.466   c-2.938-0.764-4.875-2.026-4.875-4.258c0-2.144,1.85-4.082,5.256-4.082c2.114,0,3.788,0.911,4.787,1.498   c0.234,0.118,0.322,0.323,0.206,0.5l-0.765,1.116c-0.117,0.206-0.293,0.264-0.499,0.147c-1.145-0.587-2.29-1.116-3.729-1.116   c-2.496,0-2.938,1.351-2.938,2.026c0,1.321,1.703,1.85,3.377,2.32c2.614,0.705,5.286,1.821,5.286,4.317   c0,2.466-2.23,4.14-5.696,4.14c-2.379,0-4.521-1.174-5.256-1.761C120.878,28.1,120.819,27.894,120.907,27.777L120.907,27.777z    M157.26,6.282c0.264,0,0.412,0.147,0.412,0.382v1.468c0,0.235-0.147,0.382-0.412,0.382h-12.421v8.604h7.546   c0.235,0,0.382,0.117,0.382,0.411v1.409c0,0.264-0.117,0.382-0.382,0.382h-7.546v10.072c0,0.235-0.118,0.381-0.354,0.381h-1.175   c-0.499,0-0.763-0.323-0.763-0.793V6.664c0-0.265,0.118-0.382,0.382-0.382H157.26L157.26,6.282z M167.273,29.949   c4.082,0,7.488-3.259,7.488-7.429c0-4.258-3.406-7.518-7.488-7.518c-4.14,0-7.546,3.26-7.546,7.518   C159.727,26.69,163.133,29.949,167.273,29.949z M167.273,27.865c-3.083,0-5.374-2.525-5.374-5.344c0-2.878,2.291-5.403,5.374-5.403   c3.025,0,5.315,2.525,5.315,5.403C172.589,25.34,170.298,27.865,167.273,27.865z M187.388,16.09   c0.265,0.176,0.324,0.293,0.177,0.499l-0.852,1.233c-0.088,0.176-0.235,0.206-0.441,0.117c-0.821-0.44-1.468-0.734-2.554-0.734   c-1.057,0-2.584,0.44-3.73,2.261v9.925c0,0.206-0.116,0.381-0.322,0.381h-1.557c-0.206,0-0.322-0.176-0.322-0.381V15.59   c0-0.176,0.116-0.352,0.322-0.352h1.116c0.47,0,0.763,0.47,0.763,0.852v0.822c1.233-1.175,2.614-1.792,4.142-1.792   C185.596,15.12,186.771,15.679,187.388,16.09L187.388,16.09z M52.87,56.973l0.82-0.969c0.265-0.264,0.529-0.234,0.765-0.059   c0.558,0.47,2.848,2.966,6.106,2.966c3.876,0,5.579-2.114,5.579-4.199c0-2.995-3.406-3.788-6.489-4.903   c-3.494-1.322-6.489-2.908-6.489-6.432c0-2.936,2.144-6.167,7.399-6.167c3.611,0,6.226,2.173,6.931,2.79   c0.234,0.206,0.322,0.47,0.146,0.705l-0.764,0.999c-0.176,0.235-0.411,0.293-0.675,0.116c-0.588-0.439-2.702-2.407-5.608-2.407   c-3.289,0-5.139,1.731-5.139,3.964c0,2.584,2.612,3.495,6.049,4.729c3.142,1.174,6.93,2.76,6.93,6.636   c0,3.405-3.171,6.342-7.84,6.342c-4.288,0-6.93-2.789-7.605-3.465C52.781,57.412,52.605,57.236,52.87,56.973L52.87,56.973z    M84.671,46.371c0.206,0,0.323,0.176,0.323,0.411v13.772c0,0.204-0.146,0.352-0.323,0.352h-1.263c-0.323,0-0.617-0.471-0.617-0.822   v-1.232c-1.264,1.086-3.055,2.26-5.462,2.26c-3.055,0-5.99-1.819-5.99-5.52v-6.578c-0.029-0.791-0.06-1.496-0.117-2.144   c-0.03-0.293,0.029-0.499,0.264-0.499h1.264c0.558,0,0.792,0.352,0.792,0.852v8.075c0,2.232,1.38,3.817,3.994,3.817   c2.173,0,3.847-1.204,5.256-2.613v-9.72c0-0.235,0.118-0.411,0.322-0.411H84.671L84.671,46.371z M87.99,58.911l0.733-1.058   c0.147-0.235,0.264-0.295,0.499-0.177c0.088,0.089,1.909,1.322,4.141,1.322c2.468,0,3.23-1.058,3.23-2.026   c0-1.41-1.645-1.938-3.641-2.467c-2.938-0.764-4.875-2.025-4.875-4.258c0-2.145,1.851-4.082,5.256-4.082   c2.115,0,3.788,0.91,4.787,1.498c0.234,0.117,0.322,0.322,0.206,0.499l-0.764,1.116c-0.118,0.205-0.294,0.264-0.5,0.146   c-1.145-0.587-2.291-1.116-3.729-1.116c-2.496,0-2.938,1.352-2.938,2.026c0,1.321,1.703,1.851,3.377,2.319   c2.613,0.705,5.286,1.82,5.286,4.316c0,2.467-2.23,4.141-5.695,4.141c-2.379,0-4.522-1.174-5.257-1.762   C87.96,59.234,87.902,59.027,87.99,58.911L87.99,58.911z M110.482,60.057c0.088,0.176-0.087,0.323-0.293,0.44   c-0.559,0.294-1.557,0.558-2.672,0.558c-3.054,0-3.788-1.762-3.788-5.402v-7.135h-1.819c-0.206,0-0.354-0.119-0.354-0.354v-0.439   c0-0.177,0.029-0.293,0.206-0.412c1.791-0.851,2.613-1.731,3.348-5.227c0.06-0.176,0.117-0.294,0.265-0.294h0.352   c0.206,0,0.235,0.118,0.235,0.323v4.258h3.641c0.206,0,0.381,0.146,0.381,0.382v1.409c0,0.206-0.176,0.354-0.381,0.354h-3.083   c-0.234,0-0.439-0.029-0.587-0.088v6.93c0,2.291,0.147,3.611,1.909,3.611c0.881,0,1.321-0.146,1.791-0.293   c0.294-0.088,0.529-0.029,0.588,0.205L110.482,60.057z M125.488,60.35c-0.293-2.85-0.322-5.668-0.205-8.517   c0.146-3.406-1.675-5.638-5.257-5.638c-2.319,0-4.668,0.705-6.107,1.498c-0.234,0.117-0.353,0.352-0.234,0.558l0.499,1.116   c0.088,0.234,0.264,0.293,0.559,0.146c2.025-0.969,3.583-1.351,5.197-1.351c2.085,0,3.289,1.057,3.201,3.347   c-6.196,1.057-10.131,2.085-10.131,5.667c0,2.38,1.762,3.876,4.728,3.876c2.525,0,4.023-0.792,5.609-1.791   c0.088,0.881,0.264,1.646,0.646,1.646h1.232C125.488,60.907,125.546,60.672,125.488,60.35L125.488,60.35z M118.117,59.262   c-1.527,0-2.85-0.587-2.85-2.113c0-2.32,3.848-2.908,7.841-3.729c-0.059,1.351-0.059,2.966,0,4.17   C122.022,58.323,120.084,59.264,118.117,59.262L118.117,59.262z M130.45,40.027c-0.734,0-1.292-0.558-1.292-1.262   c0-0.705,0.558-1.263,1.292-1.263c0.676,0,1.263,0.558,1.263,1.263C131.714,39.471,131.126,40.027,130.45,40.027z M131.185,46.371   h-1.468c-0.265,0-0.382,0.117-0.382,0.381v13.361c0,0.47,0.264,0.793,0.733,0.793h1.146c0.206,0,0.353-0.146,0.353-0.381V46.753   C131.567,46.489,131.42,46.371,131.185,46.371L131.185,46.371z M149.302,60.438c0.029,0.264-0.029,0.47-0.264,0.47h-1.264   c-0.527,0-0.793-0.353-0.793-0.822V51.98c0-2.232-1.409-3.789-3.994-3.789c-2.173,0-3.847,1.086-5.227,2.467v9.865   c0,0.207-0.147,0.383-0.352,0.383h-1.558c-0.206,0-0.323-0.176-0.323-0.383V46.725c0-0.177,0.147-0.354,0.323-0.354h1.116   c0.47,0,0.764,0.47,0.792,0.852v1.204c1.233-1.086,3.025-2.261,5.433-2.261c3.025,0,5.99,1.792,5.99,5.521v6.606   C149.214,59.057,149.244,59.762,149.302,60.438L149.302,60.438z M164.572,60.35c-0.294-2.85-0.322-5.668-0.205-8.517   c0.146-3.406-1.675-5.638-5.257-5.638c-2.319,0-4.669,0.705-6.107,1.498c-0.235,0.117-0.354,0.352-0.235,0.558l0.499,1.116   c0.088,0.234,0.265,0.293,0.559,0.146c2.025-0.969,3.583-1.351,5.197-1.351c2.085,0,3.289,1.057,3.201,3.347   c-6.196,1.057-10.131,2.085-10.131,5.667c0,2.38,1.762,3.876,4.728,3.876c2.525,0,4.023-0.792,5.609-1.791   c0.088,0.881,0.264,1.646,0.646,1.646h1.232C164.572,60.907,164.631,60.672,164.572,60.35L164.572,60.35z M157.201,59.262   c-1.526,0-2.849-0.587-2.849-2.113c0-2.32,3.848-2.908,7.84-3.729c-0.059,1.351-0.059,2.966,0,4.17   C161.107,58.323,159.169,59.264,157.201,59.262L157.201,59.262z M174.938,46.225c3.465,0,6.753,2.849,6.753,7.282   c0,4.199-2.584,7.576-6.754,7.576c-1.791,0-3.406-0.675-4.609-1.556v0.47c0,0.587-0.587,0.91-1.058,0.91h-0.822   c-0.176,0-0.322-0.146-0.322-0.353V39.559c0-0.734-0.118-1.176-0.176-1.675c-0.029-0.264,0.059-0.47,0.265-0.47h1.351   c0.471,0,0.765,0.293,0.765,0.734v9.455C171.385,46.87,172.853,46.225,174.938,46.225L174.938,46.225z M174.585,59.027   c2.878,0,4.934-2.231,4.934-5.521c0-3.583-2.643-5.196-4.934-5.196c-1.645,0-3.055,0.558-4.258,1.408v7.87   C171.444,58.352,172.824,59.027,174.585,59.027L174.585,59.027z M186.508,40.027c-0.734,0-1.292-0.558-1.292-1.262   c0-0.705,0.558-1.263,1.292-1.263c0.675,0,1.263,0.558,1.263,1.263C187.77,39.471,187.183,40.027,186.508,40.027z M187.242,46.371   h-1.47c-0.264,0-0.381,0.117-0.381,0.381v13.361c0,0.47,0.265,0.793,0.734,0.793h1.146c0.205,0,0.354-0.146,0.354-0.381V46.753   C187.624,46.489,187.476,46.371,187.242,46.371L187.242,46.371z M193.878,37.416h-1.468c-0.265,0-0.383,0.117-0.383,0.382v22.287   c0,0.499,0.266,0.822,0.793,0.822h1.058c0.234,0,0.382-0.147,0.382-0.411v-22.7c0-0.264-0.146-0.382-0.382-0.382V37.416z    M199.722,40.027c-0.734,0-1.292-0.558-1.292-1.262c0-0.705,0.558-1.263,1.292-1.263c0.675,0,1.262,0.558,1.262,1.263   S200.397,40.027,199.722,40.027z M200.456,46.371h-1.469c-0.264,0-0.382,0.117-0.382,0.381v13.361c0,0.47,0.265,0.793,0.734,0.793   h1.145c0.206,0,0.354-0.146,0.354-0.381V46.753C200.838,46.489,200.691,46.371,200.456,46.371L200.456,46.371z M213.141,60.057   c0.088,0.176-0.088,0.323-0.293,0.44c-0.558,0.294-1.557,0.558-2.672,0.558c-3.054,0-3.788-1.762-3.788-5.402v-7.135h-1.821   c-0.206,0-0.352-0.119-0.352-0.354v-0.439c0-0.177,0.029-0.293,0.205-0.412c1.792-0.851,2.613-1.731,3.348-5.227   c0.06-0.176,0.118-0.294,0.266-0.294h0.352c0.206,0,0.235,0.118,0.235,0.323v4.258h3.641c0.206,0,0.382,0.146,0.382,0.382v1.409   c0,0.206-0.176,0.354-0.382,0.354h-3.083c-0.235,0-0.44-0.029-0.587-0.088v6.93c0,2.291,0.146,3.611,1.908,3.611   c0.881,0,1.321-0.146,1.792-0.293c0.294-0.088,0.528-0.029,0.587,0.205L213.141,60.057z M229.674,46.371   c0.265,0,0.382,0.146,0.265,0.411l-6.02,12.421c-2.731,5.607-5.344,9.044-6.931,10.688c-0.205,0.207-0.44,0.088-0.616-0.117   l-0.881-0.852c-0.235-0.234-0.206-0.439,0.028-0.705c1.909-2.144,4.581-5.844,6.021-9.189l-6.227-12.274   c-0.117-0.235,0-0.382,0.206-0.382h1.821c0.176,0,0.264,0.088,0.352,0.234l5.021,10.189l4.815-10.131   c0.089-0.205,0.206-0.293,0.411-0.293H229.674L229.674,46.371z"></path>
</g>
</svg>
